<?xml version="1.0" encoding="UTF-8" standalone="no"?>
<!-- Created with Inkscape (http://www.inkscape.org/) -->

<svg
   version="1.1"
   id="svg62"
   width="224"
   height="209.33333"
   viewBox="0 0 224 209.33333"
   xmlns="http://www.w3.org/2000/svg"
   xmlns:svg="http://www.w3.org/2000/svg">
  <defs
     id="defs66" />
  <g
     id="g68">
    <path
       style="fill:#fff;stroke:none;stroke-width:0.666667"
       d="m 40.982957,6.3517902 c -7.40373,3.7018668 -14.1626,13.4773998 -20,19.3147998 -2.32346,2.323467 -5.7626,4.8308 -6.93106,8 -2.96334,8.037333 -0.40227,21.426 -0.40227,30 v 68.66666 31.33333 c 0,3.93 -1.10913,9.88334 1.06893,13.33334 4.37987,6.938 12.46834,12.87066 18.2644,18.66666 2.503,2.50334 5.2562,6.34 8.66667,7.598 7.86747,2.90067 20.94227,0.402 29.33333,0.402 h 68.000003 31.33334 c 4.052,0 10.30333,1.16334 14,-0.68533 7.404,-3.702 14.16266,-13.47733 20,-19.31467 2.32333,-2.32333 5.76266,-4.83066 6.93133,-8 2.96333,-8.03733 0.402,-21.426 0.402,-30 V 76.999923 45.66659 c 0,-3.9298 1.10933,-9.8832 -1.06867,-13.333333 -4.38,-6.937867 -12.46866,-12.8706 -18.26466,-18.666667 -2.50334,-2.503 -5.256,-6.3402664 -8.66667,-7.5977331 C 175.7823,3.168117 162.70763,5.6665903 154.3163,5.6665903 H 86.316297 54.982957 c -4.05173,0 -10.3036,-1.1630267 -14,0.6851999 m 4.66667,6.3837338 c 8.03727,-2.9633343 21.426,-0.402267 30,-0.402267 h 68.666673 24 c 3.43533,0 8.07333,-0.7998 11.33333,0.402267 3.16933,1.168466 5.67667,4.6076 8,6.931066 5.18067,5.181 12.34733,10.4618 16.26467,16.666667 2.014,3.190333 1.06866,8.376933 1.06866,12 v 28.666666 65.999997 c 0,8.208 2.436,20.96933 -0.402,28.66666 -2.50866,6.80267 -12.518,13.58734 -17.598,18.66667 -2.14133,2.14133 -4.41,5.18667 -7.33333,6.26467 -8.03733,2.96333 -21.426,0.402 -30,0.402 h -68.666673 -24 c -3.43546,0 -8.073,0.8 -11.33333,-0.402 -3.1692,-1.16867 -5.6766,-4.608 -8,-6.93134 -5.18093,-5.18066 -12.34727,-10.462 -16.2644,-16.66666 -2.01407,-3.19067 -1.06893,-8.37667 -1.06893,-12 V 132.33325 66.333256 c 0,-8.208133 -2.43587,-20.968999 0.40226,-28.666666 1.07774,-2.923133 4.12307,-5.191867 6.2644,-7.333333 5.07954,-5.079867 11.8642,-15.089667 18.66667,-17.597733 m 0.66667,55.597732 4.3776,6.676667 0.28906,18.656666 v 26.666661 l -0.40226,11.93067 -4.2644,5.40266 14.66666,0.66667 -4.3776,-6.69333 -0.28906,-15.97334 V 81.666589 h 0.66666 c 4.33234,15.038667 13.67934,29.914661 20.49467,43.999991 1.36933,2.83134 4.06,12.832 7.57733,13.386 3.252,0.512 7.13067,-11.57666 8.21067,-14.05266 6.572672,-15.06334 17.252003,-30.673331 21.050673,-46.666664 h 0.66666 l -0.0987,51.999324 -4.568,8.00067 21.33333,-0.66667 -4.37733,-6.69533 -0.28934,-27.30466 c 7.90934,7.90799 16.46734,15.12733 24.66667,22.72599 3.79333,3.51534 8.122,5.758 7.33333,11.274 h 18.66671 L 166.3163,126.14325 136.98296,99.666594 v -0.666672 c 7.234,-5.090666 14.80867,-18.155999 23.33334,-20.297333 2.83733,-0.712666 5.89933,1.154667 8.66666,1.630667 0.52334,-2.210667 2.11467,-4.975333 1.71867,-7.263333 -0.78733,-4.548 -8.00133,-5.189333 -11.052,-3.060667 -11.692,8.157333 -22.542,20.283333 -32.66667,30.323994 l 0.28934,-24.665994 4.37733,-7.334 H 112.98296 L 103.1483,90.999923 87.649627,123.66658 68.480957,83.666589 60.558097,69.01859 Z"
       id="path3811-7" />
  </g>
</svg>
